<svg xmlns="http://www.w3.org/2000/svg" viewBox="0 0 64 64" fill="none">
  <g stroke="#59432c" stroke-width="2.8" stroke-linecap="round" stroke-linejoin="round">
    <path d="M21 20 24 13Q25 11 28 11H38Q41 11 42 14L45 20" fill="#fff4dc"/>
    <path d="M10 20V16Q10 14 12 14H18Q20 14 20 16V20" fill="#e8b56b"/>
    <path d="M12 20Q6 20 6 26L7 48Q7 54 13 54L52 53Q58 53 58 47L57 26Q57 20 51 20Z" fill="#77aaa3"/>
    <path d="M7 31H57V45L7 46Z" fill="#4e8580" stroke="none"/>
    <path d="M12 20Q6 20 6 26L7 48Q7 54 13 54L52 53Q58 53 58 47L57 26Q57 20 51 20Z"/>
    <circle cx="33" cy="36" r="13" fill="#fff4dc"/>
    <circle cx="33" cy="36" r="8.3" fill="#315e5d"/>
    <path d="M29 32Q31 29 34 30" stroke="#c9e2d5" stroke-width="2.5"/>
    <path d="M47 25H51V28H47Z" fill="#f2cc83" stroke-width="1.8"/>
    <path d="M11 26H16" stroke="#c9e2d5" stroke-width="2"/>
  </g>
</svg>
